<?xml version="1.0" standalone="no"?><!DOCTYPE svg PUBLIC "-//W3C//DTD SVG 1.1//EN" "http://www.w3.org/Graphics/SVG/1.1/DTD/svg11.dtd"><svg t="1587716542415" class="icon" viewBox="0 0 1024 1024" version="1.1" xmlns="http://www.w3.org/2000/svg" p-id="11357" xmlns:xlink="http://www.w3.org/1999/xlink" width="200" height="200"><defs><style type="text/css"></style></defs><path d="M254.593 740.233c-17.109 99.238-25.094 149.359 3.422 177.943 55.689 55.892 196.388-6.993 219.007-17.109 138.933-62.132 326.846-230.038 277.181-383.263-27.969-86.359-128.895-160.332-229.148-154.469-78.706 4.563-131.519 56.839-157.571 82.596-74.953 74.121-90.021 161.586-112.891 294.303z" fill="#EF863F" p-id="11358"></path><path d="M261.436 928.465c2.761 9.969 50.633 4.711 67.619 2.841 206.563-22.676 350.925-165.248 393.53-242.403 0.901-1.631 2.282-4.095 3.924-7.312 12.068-23.258 45.113-89.189 27.787-163.81-7.597-32.715-12.080-52.038-23.954-54.752-41.189-9.422-63.010 205.73-223.57 337.523-111.067 91.207-249.999 110.861-245.334 127.914z" fill="#CF7436" p-id="11359"></path><path d="M316.69 961.989c-30.204 0-58.927-7.175-82.915-25.767-56.452-43.756-55.892-127.926-49.174-196.365 1.178-11.599 10.894-20.574 22.704-20.574 12.601 0 22.816 10.215 22.816 22.816 0 0.789-0.041 1.569-0.119 2.338-5.603 56.721-7.065 125.673 31.718 155.73 15.045 11.658 34.151 16.323 55.129 16.323 67.026 0 153.123-47.566 186.806-66.158 30.398-16.791 89.335-52.471 142.492-102.567 75.808-71.474 108.078-141.715 95.918-208.741-10.073-55.539-51.193-107.131-115.778-145.275-76.356-45.091-172.492-50.189-244.923-13.038-91.071 46.767-119.005 146.587-134.314 238.102-1.882 10.875-11.245 19.042-22.517 19.042-12.61 0-22.834-10.223-22.834-22.834 0-1.34 0.115-2.652 0.337-3.929 10.817-64.391 24.482-111.136 44.352-151.447 27.079-54.946 64.425-94.058 114.181-119.575 43.755-22.46 94.675-32.521 147.374-29.121 57.379 3.817 109.791 22.179 154.46 51.397 63.27 37.050 112.090 99.707 124.558 168.477 8.373 46.151 0.399 93.421-23.703 140.484-18.866 36.844-47.737 73.732-85.812 109.629-56.806 53.612-119.451 91.469-151.708 109.31-40.619 22.448-129.899 71.748-209.049 71.748z" fill="#000000" p-id="11360"></path><path d="M215.102 702.237c-0.007 0-0.021 0-0.031 0-12.599 0-22.813-10.214-22.813-22.813 0-1.099 0.078-2.179 0.228-3.235l0.123-0.871c1.578-11.197 11.095-19.717 22.602-19.717 12.599 0 22.814 10.214 22.814 22.814 0 1.092-0.077 2.167-0.225 3.218l-0.123 0.894c-1.579 11.185-11.081 19.697-22.575 19.71z" fill="#000000" p-id="11361"></path><path d="M584.142 84.818c-41.555 0.651-110.645 178.651-40.402 241.319 24.946 22.266 71.326 33.41 95.815 13.689 57.216-45.993-10.004-255.714-55.414-255.007z" fill="#6BE166" p-id="11362"></path><path d="M606.361 372.903c-27.89 0-57.604-11.761-77.759-29.737-23.658-21.114-36.683-53.794-37.642-94.516-0.765-31.654 5.772-67.778 18.399-101.713 9.399-25.334 35.543-84.318 74.474-84.934 16.87-0.262 33.081 10.517 48.057 32.042 10.756 15.422 21.079 36.399 29.817 60.66 20.439 56.577 41.794 162.967-7.813 202.89-13.221 10.654-30.023 15.296-47.531 15.308zM584.358 108.554c-3.856 2.897-11.783 11.143-21.057 28.893-10.448 19.996-18.947 45.274-23.315 69.351-8.464 46.699-1.539 83.988 18.992 102.307 18.992 16.951 53.087 23.601 66.329 12.935 9.422-7.574 17.909-33.866 10.848-83.029-6.956-46.183-21.911-87.714-43.492-124.923 6.307 9.511-3.743-1.897-8.304-5.535zM582.464 107.335zM584.142 84.818z" fill="#000000" p-id="11363"></path><path d="M653.562 319.874c-7.266 27.479 3.764 66.512 27.376 75.284 49.79 18.502 154.331-97.881 136.789-128.13-15.718-27.079-146.426-14.293-164.165 52.847z" fill="#6BE166" p-id="11364"></path><path d="M692.503 419.945c-0.094 0.001-0.205 0.001-0.318 0.001-6.897 0-13.499-1.255-19.594-3.549-17.239-6.421-31.076-22.31-38.571-44.622-6.331-18.855-7.254-39.923-2.543-57.753 13.243-50.109 69.443-74.885 117.625-81.353 16.334-2.19 70.983-7.027 88.333 22.893 7.447 12.832 6.638 29.385-2.372 49.174-6.182 13.563-16.231 28.778-29.065 43.995-29.589 35.145-74.463 71.212-113.495 71.212zM774.427 276.518c-18.995 0.142-37.125 3.658-53.881 9.977-13.087 4.748-39.162 17.125-44.946 39.209-5.007 18.969 3.502 44.486 13.267 48.079 4.563 1.711 18.604 0.148 41.873-16.585 34.313-25.399 61.034-59.217 77.341-98.452-18.095 36.161-13.465 25.689-11.878 20.283-4.551-1.437-12.159-2.51-21.751-2.51zM653.517 319.863zM799.726 280.636z" fill="#000000" p-id="11365"></path><path d="M606.773 535.814l71.759 68.679z" fill="#EF863F" p-id="11366"></path><path d="M678.532 627.306c-6.132-0.007-11.693-2.439-15.779-6.391l-71.767-68.618c-4.47-4.176-7.257-10.105-7.257-16.687 0-12.599 10.214-22.813 22.813-22.813 6.226 0 11.87 2.495 15.986 6.538l71.767 68.665c4.342 4.161 7.041 10.006 7.041 16.483 0 12.599-10.214 22.813-22.813 22.813-0.001 0-0.002 0-0.004 0z" fill="#000000" p-id="11367"></path><path d="M579.27 648.717l34.756 33.25z" fill="#EF863F" p-id="11368"></path><path d="M614.027 704.78c-0.023 0-0.053 0-0.082 0-6.090 0-11.62-2.394-15.701-6.293l-34.736-33.242c-4.47-4.176-7.257-10.105-7.257-16.687 0-12.599 10.214-22.813 22.813-22.813 6.226 0 11.87 2.495 15.986 6.538l34.718 33.202c4.342 4.161 7.041 10.006 7.041 16.483 0 12.599-10.214 22.813-22.813 22.813-0.001 0-0.002 0-0.004 0z" fill="#000000" p-id="11369"></path></svg>